<?xml version="1.0" standalone="no"?>
<!DOCTYPE svg PUBLIC "-//W3C//DTD SVG 20010904//EN"
 "http://www.w3.org/TR/2001/REC-SVG-20010904/DTD/svg10.dtd">
<svg version="1.0" xmlns="http://www.w3.org/2000/svg"
 width="1600.000000pt" height="1600.000000pt" viewBox="0 0 1600.000000 1600.000000"
 preserveAspectRatio="xMidYMid meet">
<metadata>
Created by potrace 1.14, written by Peter Selinger 2001-2017
</metadata>
<g transform="translate(0.000000,1600.000000) scale(0.100000,-0.100000)"
fill="#000000" stroke="none">
<path d="M6920 11238 c-19 -12 -42 -30 -51 -40 -9 -10 -19 -18 -22 -18 -10 0
-90 -73 -192 -175 -134 -133 -255 -286 -335 -422 -17 -28 -34 -53 -38 -55 -4
-2 -17 -23 -29 -48 -13 -25 -38 -72 -57 -105 -39 -67 -76 -143 -76 -156 0 -5
-4 -9 -10 -9 -5 0 -9 -3 -8 -7 1 -9 -5 -25 -33 -89 -22 -50 -60 -146 -64 -159
-1 -5 -5 -17 -8 -25 -22 -57 -83 -254 -91 -290 -2 -14 -12 -53 -21 -88 -9 -35
-18 -75 -20 -90 -2 -15 -4 -27 -5 -27 -3 0 -10 -40 -14 -77 -3 -21 -8 -47 -11
-59 -4 -11 -8 -37 -11 -57 -4 -39 -10 -93 -18 -152 -24 -176 -27 -860 -4 -860
4 0 7 -8 6 -17 0 -19 10 -128 12 -128 2 0 6 -23 14 -75 5 -36 9 -58 27 -147 6
-29 11 -56 11 -60 1 -5 12 -46 25 -93 13 -47 23 -86 23 -87 1 -6 12 -39 20
-59 20 -52 -9 -38 -75 33 -39 42 -80 87 -91 99 -12 13 -37 44 -55 71 -19 26
-37 50 -40 53 -21 17 -159 242 -204 335 -56 114 -117 260 -128 307 -4 15 -12
40 -19 55 -14 34 -11 25 -28 96 -14 61 -12 59 -85 59 -37 0 -391 -11 -535 -17
-58 -3 -184 -7 -280 -10 -96 -3 -215 -8 -265 -10 -49 -2 -160 -6 -245 -10
-233 -9 -342 -14 -480 -20 -69 -4 -144 -7 -168 -8 -42 -2 -42 -2 -38 -37 2
-19 9 -55 16 -80 7 -25 13 -52 14 -60 2 -20 37 -171 44 -190 7 -21 10 -31 16
-58 3 -13 8 -32 11 -42 3 -10 8 -27 10 -37 4 -19 84 -252 107 -313 7 -19 17
-38 21 -41 5 -3 9 -10 9 -15 1 -22 10 -29 36 -28 15 1 29 3 32 4 3 1 10 3 15
4 6 1 28 5 50 9 22 3 56 9 75 12 19 2 46 7 60 10 14 3 45 8 70 11 25 3 54 8
65 10 11 3 36 7 55 10 19 2 58 9 85 14 46 9 94 16 155 25 14 2 39 6 55 9 17 3
46 8 65 11 40 7 66 11 130 20 25 4 59 10 76 15 40 10 52 2 59 -40 3 -19 8 -43
11 -52 3 -9 7 -26 9 -37 3 -12 7 -31 10 -42 2 -12 9 -36 15 -54 6 -18 12 -41
15 -51 5 -25 67 -198 107 -297 18 -45 27 -82 22 -86 -7 -7 -392 -139 -426
-147 -5 -1 -9 -2 -10 -4 -2 -1 -10 -3 -18 -5 -8 -1 -40 -12 -70 -23 -30 -11
-107 -36 -170 -57 -63 -20 -130 -43 -148 -51 l-34 -14 21 -28 c11 -16 18 -32
14 -36 -3 -3 -1 -6 5 -6 7 0 12 -5 12 -11 0 -10 144 -226 159 -239 3 -3 19
-23 36 -45 16 -22 31 -42 35 -45 3 -3 32 -39 65 -80 33 -41 70 -86 82 -100 12
-14 31 -36 43 -50 167 -196 465 -480 503 -480 6 0 27 10 46 23 108 70 152 97
161 97 5 0 10 4 10 8 0 4 19 18 43 30 23 12 69 40 102 62 33 22 68 43 78 46 9
4 17 10 17 15 0 5 5 9 10 9 6 0 47 23 92 51 142 89 147 92 164 74 9 -8 19 -15
23 -15 4 0 18 -9 31 -20 13 -11 29 -20 37 -20 7 0 13 -4 13 -9 0 -6 23 -22 50
-37 28 -15 50 -31 50 -36 0 -4 4 -8 9 -8 5 0 44 -22 85 -50 42 -27 80 -50 86
-50 5 0 10 -4 10 -10 0 -5 6 -10 14 -10 8 0 22 -7 30 -16 9 -9 22 -17 29 -18
7 -1 29 -12 48 -24 20 -12 39 -22 43 -22 4 0 23 -11 42 -24 l35 -23 -53 -34
c-29 -18 -55 -36 -58 -39 -3 -3 -21 -14 -40 -24 -19 -11 -44 -28 -54 -38 -11
-10 -26 -18 -33 -18 -7 0 -13 -4 -13 -10 0 -5 -15 -16 -32 -23 -18 -8 -39 -21
-47 -30 -7 -10 -16 -17 -20 -17 -4 0 -85 -52 -181 -115 -95 -63 -177 -115
-182 -115 -24 0 13 -22 144 -87 79 -39 161 -79 183 -88 22 -9 49 -21 60 -26
73 -31 309 -117 339 -123 19 -4 99 -28 126 -37 14 -5 34 -11 45 -13 11 -2 70
-15 130 -29 142 -32 250 -51 297 -51 21 -1 38 -4 38 -7 0 -3 15 -5 33 -4 17 1
36 -1 42 -4 24 -12 46 -7 50 13 10 50 36 184 40 211 2 17 14 80 26 140 11 61
22 119 24 131 1 11 8 45 14 75 6 30 13 68 16 84 2 17 13 75 24 130 11 55 22
116 26 135 3 19 8 46 10 60 15 74 27 148 28 168 0 6 4 12 9 12 5 0 7 4 4 9 -4
5 -2 31 4 58 5 26 12 59 14 73 3 14 7 35 10 46 2 12 7 39 10 60 3 22 8 50 11
64 12 57 16 79 69 370 2 14 5 25 6 25 1 0 3 11 5 25 2 14 6 39 10 55 3 17 8
41 10 55 4 29 13 75 20 110 11 52 17 86 20 105 1 11 3 20 4 20 1 0 4 18 6 40
5 45 -21 92 -65 118 -31 19 -132 109 -179 161 -20 22 -48 52 -63 68 -15 15
-25 28 -22 28 6 0 -14 25 -38 48 -10 9 -18 20 -18 25 0 5 -13 28 -30 52 -16
24 -30 48 -30 53 0 6 -4 12 -9 14 -18 7 -169 328 -154 328 3 0 1 6 -4 13 -11
13 -49 125 -56 167 -3 14 -8 32 -11 40 -3 8 -7 26 -10 40 -3 14 -11 61 -20
105 -8 44 -18 107 -21 140 -3 33 -8 76 -11 95 -7 52 -7 326 -1 395 14 145 39
290 69 400 6 22 12 47 13 55 2 8 4 16 5 18 3 2 2 0 20 65 7 26 16 50 21 53 5
3 9 15 9 27 0 12 4 17 8 12 4 -6 23 -22 42 -35 37 -26 64 -48 85 -67 7 -7 56
-41 109 -77 195 -130 460 -240 656 -272 19 -3 46 -7 60 -10 113 -22 447 -22
546 0 12 2 37 7 55 10 56 9 183 44 258 71 115 42 331 148 339 168 2 4 8 7 13
7 11 0 72 42 77 53 2 4 8 7 13 7 10 0 17 5 63 45 16 14 32 25 35 25 3 0 24 16
46 35 46 40 50 41 59 18 35 -105 43 -133 38 -138 -3 -3 1 -5 8 -5 7 0 11 -3 7
-6 -3 -3 -2 -17 3 -30 6 -14 12 -35 14 -47 2 -12 9 -40 14 -62 6 -22 13 -51
16 -65 5 -33 15 -88 21 -125 23 -139 25 -534 2 -562 -6 -9 -6 -13 1 -13 6 0 9
-6 7 -12 -4 -13 -15 -76 -19 -113 -5 -34 -17 -98 -33 -160 -14 -55 -20 -83
-26 -110 -2 -5 -6 -16 -11 -23 -4 -7 -5 -16 -2 -19 3 -3 2 -11 -2 -17 -5 -6
-17 -38 -27 -71 -10 -33 -21 -64 -26 -70 -4 -5 -8 -14 -9 -20 -15 -72 -137
-296 -224 -410 -55 -73 -150 -184 -157 -184 -4 -1 -24 -18 -45 -39 -22 -20
-68 -62 -103 -92 l-63 -55 12 -70 c6 -39 13 -79 15 -90 1 -11 8 -47 15 -80 6
-33 13 -71 15 -85 4 -25 12 -61 15 -70 1 -3 2 -9 1 -13 -1 -5 7 -52 18 -105
22 -109 34 -170 37 -192 1 -8 8 -42 14 -75 7 -33 13 -71 15 -85 2 -14 4 -25 5
-25 1 0 3 -11 6 -25 11 -65 13 -77 19 -100 3 -14 7 -38 10 -55 2 -16 9 -55 15
-85 6 -30 13 -70 16 -89 3 -18 8 -43 10 -55 2 -11 8 -46 14 -76 11 -60 17 -92
25 -130 2 -14 7 -41 10 -60 3 -19 8 -42 10 -50 2 -8 7 -31 10 -50 3 -19 8 -46
10 -60 13 -62 15 -77 20 -114 3 -21 7 -41 9 -45 4 -6 14 -61 21 -111 2 -14 6
-35 8 -46 3 -12 8 -37 11 -55 3 -19 8 -45 11 -59 5 -24 24 -120 29 -150 2 -12
18 -15 72 -13 149 4 185 10 420 69 99 24 184 46 191 47 7 2 16 6 19 10 4 4 17
7 29 7 11 0 26 5 33 12 7 7 12 9 12 6 0 -8 122 33 300 99 112 42 337 146 350
162 3 4 17 16 32 28 l28 21 -203 133 c-111 74 -206 136 -212 138 -5 2 -12 7
-15 11 -3 3 -31 22 -62 41 -32 18 -58 37 -58 41 0 5 -6 8 -13 8 -8 0 -22 9
-32 20 -10 11 -21 20 -26 20 -10 0 -89 52 -89 59 0 3 33 22 73 41 39 19 74 37
77 40 3 3 28 16 55 30 28 14 52 28 53 33 2 4 8 7 14 7 13 0 254 157 287 186
12 12 40 31 61 43 l37 21 129 -80 c71 -43 134 -83 139 -87 8 -7 202 -126 270
-166 11 -7 46 -29 77 -49 86 -56 94 -56 163 4 124 108 431 425 515 533 18 22
35 42 38 45 4 3 12 12 17 22 6 9 31 44 58 77 26 34 47 66 47 71 0 6 4 10 9 10
9 0 195 272 206 302 5 13 -15 23 -119 57 -69 23 -133 41 -141 41 -8 0 -15 5
-15 10 0 6 -10 10 -23 10 -13 0 -28 5 -35 12 -7 7 -12 9 -12 5 0 -3 -46 10
-102 29 -57 20 -110 38 -118 39 -8 2 -15 4 -15 5 0 1 -7 3 -15 5 -8 2 -77 25
-152 50 -155 52 -144 35 -93 149 34 77 83 215 101 285 2 9 15 57 29 106 14 50
27 105 30 124 2 19 6 35 7 36 7 7 46 8 78 1 19 -3 46 -8 60 -10 14 -3 26 -5
28 -7 1 -1 10 -2 20 -3 9 -1 40 -6 67 -11 57 -9 63 -10 125 -19 25 -3 56 -8
70 -11 78 -16 188 -34 250 -41 14 -1 25 -3 25 -4 0 -1 9 -3 20 -5 11 -1 38 -5
60 -9 22 -3 51 -8 65 -11 14 -3 41 -7 60 -10 19 -2 57 -8 85 -14 55 -10 62 -6
85 58 7 20 17 47 23 61 6 14 11 27 12 30 1 3 4 12 8 20 11 26 96 304 101 330
3 14 17 70 30 125 14 55 28 111 30 125 3 14 8 39 12 55 4 17 8 43 8 60 1 24
-3 29 -24 30 -14 0 -31 4 -37 8 -8 5 -13 4 -13 -3 0 -6 -5 -8 -11 -4 -6 4 -57
8 -113 10 -55 2 -159 5 -231 8 -237 10 -439 18 -515 20 -42 1 -81 6 -88 10 -7
4 -12 2 -12 -4 0 -6 -5 -8 -10 -5 -6 4 -70 8 -143 10 -72 2 -213 7 -312 10
-468 17 -555 19 -564 9 -7 -8 -50 -141 -55 -169 -1 -5 -4 -14 -7 -20 -8 -14
-23 -68 -21 -77 1 -5 -3 -8 -8 -8 -6 0 -10 -7 -10 -16 0 -8 -5 -25 -12 -37 -7
-12 -13 -31 -15 -42 -2 -11 -8 -21 -13 -23 -6 -2 -10 -10 -10 -18 0 -18 -129
-268 -141 -272 -5 -2 -9 -10 -9 -18 0 -8 -4 -14 -10 -14 -5 0 -10 -6 -10 -14
0 -8 -6 -21 -13 -28 -7 -7 -32 -41 -55 -74 -23 -34 -48 -69 -57 -77 -8 -9 -15
-18 -15 -21 0 -3 -8 -14 -17 -24 -10 -11 -53 -58 -97 -105 -43 -48 -82 -84
-87 -81 -5 3 -6 11 -2 17 4 7 8 17 9 22 1 6 16 64 33 130 29 114 35 141 47
209 3 16 10 40 15 53 6 16 5 22 -1 18 -7 -4 -6 3 0 20 6 15 13 46 16 68 3 23
7 58 9 77 22 171 29 285 29 510 0 173 -8 405 -14 405 -2 0 -4 18 -14 110 -3
33 -8 71 -11 85 -3 14 -6 37 -7 53 -1 15 -5 27 -8 27 -3 0 -6 12 -7 28 -1 26
-9 70 -18 102 -2 8 -7 29 -9 45 -6 35 -73 283 -83 305 -3 8 -8 23 -9 32 -4 17
-70 196 -95 253 -7 17 -13 32 -13 35 -3 14 -149 300 -171 335 -14 22 -32 54
-39 71 -8 17 -22 36 -30 44 -9 7 -16 19 -16 26 0 8 -4 14 -10 14 -5 0 -10 7
-10 15 0 8 -4 15 -10 15 -5 0 -10 6 -10 14 0 8 -3 16 -7 18 -5 2 -34 38 -65
80 -32 42 -72 94 -90 115 -47 54 -248 254 -283 281 -125 98 -137 106 -146 91
-5 -8 -9 -21 -10 -29 -2 -33 -11 -78 -30 -150 -11 -41 -22 -79 -23 -85 -29
-114 -107 -287 -181 -400 -11 -16 -22 -32 -25 -35 -3 -3 -21 -26 -40 -52 -18
-27 -37 -48 -42 -48 -4 0 -8 -7 -8 -17 0 -9 -2 -14 -5 -11 -3 3 -29 -18 -58
-47 -115 -113 -253 -196 -395 -237 -61 -17 -103 -22 -202 -22 -69 0 -143 4
-165 8 -98 17 -284 89 -300 116 -4 6 -11 8 -16 5 -5 -4 -9 -2 -9 4 0 5 -8 12
-17 15 -16 6 -54 36 -122 99 -41 38 -137 153 -179 214 -42 62 -164 305 -160
319 1 5 -5 23 -15 40 -9 17 -14 33 -12 36 2 2 -3 26 -11 53 -8 28 -17 59 -20
70 -20 96 -25 126 -27 144 -2 26 -4 26 -47 -1z"/>
<path d="M7104 8648 c-34 -200 45 -371 206 -447 45 -21 69 -26 135 -25 69 0
88 4 140 31 60 31 129 96 152 143 32 64 45 106 45 145 1 71 3 70 -59 73 -59 4
-108 9 -108 12 0 3 -39 9 -74 11 -20 2 -42 7 -48 12 -7 5 -13 7 -13 5 0 -5
-32 0 -110 18 -28 6 -147 38 -200 54 -53 15 -58 13 -66 -32z"/>
<path d="M8770 8664 c-47 -14 -94 -27 -105 -29 -11 -3 -31 -8 -45 -11 -14 -4
-35 -7 -47 -8 -13 0 -23 -4 -23 -7 0 -3 -6 -6 -12 -6 -14 -1 -56 -7 -123 -19
-22 -3 -56 -8 -75 -9 -19 -2 -35 -4 -35 -5 0 -1 -17 -3 -39 -4 -21 -2 -41 -9
-46 -15 -9 -15 -5 -58 15 -141 13 -57 123 -184 169 -196 14 -3 26 -10 26 -14
0 -14 99 -32 148 -27 99 11 164 44 235 122 33 37 74 118 83 165 19 102 5 223
-26 227 -8 1 -53 -10 -100 -23z"/>
</g>
</svg>
