<svg width="60" height="100" viewBox="0 0 60 100" fill="none" xmlns="http://www.w3.org/2000/svg">
<g clip-path="url(#clip0_14_17108)">
<path d="M23.4357 69.5941C20.1357 69.2941 17.0633 68.295 14.127 66.6878L18.639 63.7183C18.5447 63.6608 18.4787 63.6174 18.4097 63.5794C17.9294 63.3147 17.4374 63.0698 16.9705 62.7826C16.3154 62.3803 15.6786 61.9458 15.0348 61.5239C14.8713 61.4168 14.7114 61.3044 14.5377 61.1864C14.3591 61.2952 14.1821 61.4017 14.0065 61.5105C12.7996 62.2572 11.5922 63.0038 10.3842 63.7503C10.1104 63.9191 10.1809 63.9419 9.89522 63.7323C9.37362 63.3509 8.90841 62.9026 8.45508 62.4428C7.38826 61.3596 6.39051 60.2085 5.46788 58.9964C5.01776 58.4056 4.58441 57.8025 4.22631 57.1478C4.17502 57.0541 4.13203 56.9553 4.07338 56.8319C5.92631 56.2116 7.76415 55.6134 9.59256 55.0065C9.3344 54.3151 9.07266 53.6409 8.83128 52.9593C8.58991 52.2776 8.43113 51.5667 8.2897 50.8298L1.6355 51.9219C1.55083 51.7372 1.46069 51.5628 1.38941 51.3812C1.0232 50.4495 0.729404 49.4932 0.476904 48.5243C0.318125 47.9142 0.186312 47.2967 0.0478984 46.6813C0.0190467 46.5528 0.0150859 46.4183 0 46.2913C0.165568 46.2367 12.5992 45.7596 13.0188 45.7895C13.3638 47.1497 13.8617 48.4582 14.5564 49.6872C15.2511 50.9162 16.1097 52.0167 17.1274 53.0166C17.1711 52.9167 17.1385 52.8441 17.1187 52.7778C16.7679 51.6048 16.5096 50.4052 16.3465 49.1905C16.1669 47.855 16.0996 46.5065 16.1453 45.1594C16.1849 43.9402 16.3116 42.7256 16.5245 41.5251C16.7517 40.2364 17.0937 38.9714 17.5462 37.7456C18.0015 36.5143 18.5749 35.3316 19.2583 34.2145C19.811 33.3129 20.4274 32.46 21.1342 31.6772C21.7624 30.9796 22.4567 30.3465 23.2068 29.7869C23.2919 29.7235 23.3848 29.6719 23.4831 29.6077C23.5461 29.6928 23.5468 29.7842 23.5606 29.8679C23.6843 30.6191 23.8691 31.354 24.138 32.0652C24.5438 33.138 25.1225 34.1032 25.9006 34.9389C26.4539 35.5328 27.0803 36.0321 27.832 36.3447C28.755 36.7279 29.7149 36.8953 30.7098 36.771C31.6406 36.6545 32.4756 36.2859 33.2244 35.7161C34.2406 34.9433 35.004 33.9614 35.5537 32.8024C35.9825 31.8987 36.2514 30.944 36.4273 29.9616C36.4473 29.8499 36.4734 29.7395 36.5037 29.5938C36.6546 29.6947 36.7866 29.774 36.9091 29.8683C38.0276 30.7304 39.0014 31.7364 39.846 32.875C40.5626 33.8419 41.1753 34.8734 41.6982 35.9594C42.1655 36.935 42.5561 37.9467 42.8662 38.9849C43.3222 40.4984 43.6137 42.0439 43.7646 43.6168C43.8819 44.8387 43.8949 46.0637 43.8313 47.2904C43.7783 48.2529 43.6685 49.2114 43.5024 50.1606C43.3539 51.0158 43.1558 51.8613 42.9094 52.6928C42.8796 52.7937 42.8409 52.8943 42.8703 53.0445C43.8773 52.0608 44.7412 50.9365 45.4363 49.7054C46.1302 48.4751 46.6369 47.1674 46.9748 45.8012C47.1725 45.7629 59.8052 46.2317 60.0006 46.2855C59.9919 46.3813 59.994 46.4836 59.9723 46.5804C59.8335 47.2022 59.7047 47.827 59.5442 48.4431C59.2663 49.5104 58.9421 50.5635 58.5303 51.5868C58.504 51.6515 58.4763 51.7159 58.4465 51.7784C58.3783 51.9234 58.3758 51.9268 58.2157 51.9002C57.5463 51.7891 56.8768 51.6741 56.2078 51.564C55.4205 51.4345 54.6322 51.3092 53.8448 51.1808C53.1936 51.0745 52.5436 50.9657 51.8919 50.8586C51.8432 50.8507 51.7938 50.8471 51.7222 50.8394C51.4252 52.2698 51.0096 53.6557 50.3663 54.99L55.9534 56.8363C55.9255 56.8961 55.9078 56.9474 55.8797 56.9921C55.2298 58.0326 54.5194 59.0329 53.7524 59.9876C53.1472 60.7381 52.5052 61.4572 51.8289 62.1422C51.2545 62.7237 50.6556 63.2779 50.0322 63.8049C49.8972 63.9181 49.8949 63.9199 49.7397 63.8241C48.972 63.3506 48.2046 62.8766 47.4376 62.402C46.8153 62.0175 46.1907 61.6356 45.5707 61.2469C45.4694 61.1835 45.401 61.1845 45.3052 61.2596C44.4986 61.8908 43.6448 62.4572 42.7515 62.9535C42.3493 63.1769 41.9344 63.3763 41.5258 63.5869C41.4721 63.6147 41.4189 63.6444 41.3336 63.6896C42.827 64.6983 44.3201 65.6462 45.7976 66.6399C45.6152 66.8434 45.3995 66.9635 45.1873 67.0838C44.5718 67.4329 43.9205 67.7026 43.2618 67.9544C42.2093 68.3556 41.1369 68.701 40.0491 68.9889C39.2708 69.1955 38.4885 69.384 37.6897 69.487C37.3727 69.5277 37.0513 69.5346 36.7317 69.5541C36.6764 69.5575 36.6203 69.5474 36.5443 69.542C36.5043 69.3347 36.4639 69.1305 36.4256 68.9257C36.2809 68.1483 36.1364 67.3708 35.9919 66.5932C35.7607 65.3452 35.5296 64.0973 35.2985 62.8495C35.0872 61.7083 34.8757 60.5671 34.664 59.4259C34.4525 58.2912 34.2401 57.1567 34.0266 56.0223C33.9742 55.7403 33.9367 55.4552 33.8758 55.1751C33.8494 55.0535 33.8859 54.986 33.9734 54.9155C34.1997 54.7327 34.4221 54.5452 34.6431 54.3561C35.5361 53.5919 36.2706 52.6918 36.8577 51.6676C37.3857 50.7469 37.7711 49.7664 38.0513 48.7408C38.3195 47.7595 38.5094 46.7635 38.5616 45.747C38.5941 45.1167 38.5958 44.4825 38.5705 43.8522C38.5328 42.9252 38.3832 42.0109 38.1436 41.1155C38.0151 40.6365 37.8526 40.1658 37.7051 39.6915C37.6978 39.6683 37.6863 39.6464 37.6642 39.5978C37.6076 39.6372 37.5575 39.6685 37.5113 39.7041C37.1656 39.9696 36.829 40.2482 36.4741 40.5001C35.1009 41.4745 33.5959 42.1395 31.9433 42.437C30.9544 42.615 29.9568 42.6391 28.9561 42.5531C27.7547 42.45 26.6074 42.1347 25.5074 41.641C24.7203 41.2864 23.9741 40.8448 23.2823 40.3241C23.0094 40.1195 22.7459 39.9026 22.4776 39.6918C22.4438 39.6654 22.4065 39.6438 22.3479 39.6047C22.2753 39.7863 22.197 39.9518 22.1419 40.1248C21.7992 41.1802 21.5748 42.2714 21.4729 43.3779C21.3643 44.5806 21.4076 45.7774 21.5751 46.9689C21.7789 48.4199 22.1995 49.807 22.8608 51.1126C23.3841 52.146 24.019 53.1026 24.8542 53.9049C25.1772 54.2153 25.5297 54.4961 25.8838 54.7701C26.0796 54.9213 26.1478 55.0862 26.1016 55.3299C25.8753 56.5135 25.656 57.6988 25.4358 58.8838C25.252 59.8745 25.069 60.8653 24.887 61.8563C24.7314 62.6966 24.573 63.5363 24.4177 64.3766C24.2807 65.1165 24.148 65.8571 24.0103 66.5968C23.8343 67.5436 23.6564 68.49 23.4765 69.4361C23.4689 69.4767 23.4552 69.5192 23.4357 69.5941Z" fill="#D7DAE1"/>
<path d="M24.5026 45.6541C25.8457 46.0921 27.233 46.3748 28.6384 46.497C28.6824 46.7302 28.6633 46.9428 28.6166 47.1541C28.4091 48.0929 27.5521 48.9694 26.45 48.9267C25.8121 48.9019 25.2799 48.6307 24.887 48.1253C24.3925 47.4896 24.2326 46.7604 24.4001 45.9642C24.4206 45.8661 24.4625 45.7732 24.5026 45.6541Z" fill="#D7DAE1"/>
<path d="M31.356 46.5009C32.7522 46.3795 34.1306 46.0987 35.465 45.6641C35.5889 45.8256 35.6376 46.0141 35.6523 46.2005C35.7303 47.1873 35.4335 48.0188 34.6015 48.5857C33.7729 49.1505 32.7092 49.0162 32.0019 48.2824C31.5646 47.8289 31.3418 47.2825 31.3418 46.6457C31.3411 46.6076 31.3486 46.5699 31.356 46.5009Z" fill="#D7DAE1"/>
</g>
<defs>
<clipPath id="clip0_14_17108">
<rect width="60" height="100" fill="white" transform="translate(0 -0.406006)"/>
</clipPath>
</defs>
</svg>
