<?xml version="1.0" standalone="no"?>
<!DOCTYPE svg PUBLIC "-//W3C//DTD SVG 20010904//EN"
 "http://www.w3.org/TR/2001/REC-SVG-20010904/DTD/svg10.dtd">
<svg version="1.0" xmlns="http://www.w3.org/2000/svg"
 width="1826.000000pt" height="1826.000000pt" viewBox="0 0 1826.000000 1826.000000"
 preserveAspectRatio="xMidYMid meet">
<metadata>
Created by potrace 1.14, written by Peter Selinger 2001-2017
</metadata>
<g transform="translate(0.000000,1826.000000) scale(0.100000,-0.100000)"
fill="#000000" stroke="none">
<path d="M7711 13414 c-1 -6 -13 -17 -28 -25 -35 -18 -31 -14 -143 -106 -52
-42 -97 -81 -98 -85 -2 -4 -8 -6 -13 -2 -5 3 -9 -2 -9 -10 0 -9 -4 -16 -8 -16
-21 0 -263 -254 -357 -375 -25 -33 -50 -61 -56 -63 -5 -2 -9 -9 -9 -16 0 -7
-13 -27 -30 -44 -16 -18 -30 -34 -30 -37 0 -5 -75 -120 -97 -150 -21 -28 -61
-94 -77 -127 -9 -21 -20 -38 -24 -38 -4 0 -15 -15 -23 -32 -33 -72 -95 -183
-104 -190 -7 -5 -7 -8 0 -8 6 0 6 -3 0 -8 -6 -4 -33 -56 -59 -117 -27 -60 -53
-115 -57 -121 -5 -6 -6 -14 -2 -17 3 -4 1 -7 -5 -7 -7 0 -11 -3 -10 -7 3 -15
-25 -93 -34 -93 -4 0 -7 -3 -6 -7 2 -9 -21 -82 -31 -98 -3 -5 -6 -12 -6 -15
-2 -11 -17 -56 -25 -75 -5 -11 -21 -60 -35 -110 -15 -49 -29 -97 -32 -105 -7
-18 -12 -37 -17 -65 -2 -11 -6 -27 -9 -35 -5 -15 -19 -67 -23 -85 -1 -5 -3
-12 -4 -15 -4 -11 -21 -95 -25 -125 -1 -11 -3 -20 -4 -20 -3 0 -10 -32 -15
-72 -2 -18 -7 -40 -10 -50 -6 -18 -8 -33 -21 -133 -4 -30 -12 -61 -17 -67 -7
-9 -7 -13 1 -13 7 0 10 -4 6 -9 -6 -11 -13 -57 -20 -133 -3 -31 -7 -79 -10
-105 -29 -273 -24 -768 11 -1063 3 -30 8 -68 9 -85 2 -16 4 -30 5 -30 1 0 4
-16 6 -35 1 -19 5 -46 9 -60 3 -14 8 -45 12 -70 6 -50 11 -75 13 -75 2 0 6
-19 14 -65 3 -19 8 -46 12 -60 3 -14 6 -35 7 -47 1 -13 4 -23 7 -23 3 0 6 -8
7 -17 1 -10 16 -72 33 -138 18 -66 33 -124 34 -130 2 -5 6 -17 9 -25 3 -8 8
-28 12 -45 l6 -29 -23 19 c-12 11 -31 29 -41 40 -10 11 -46 49 -79 85 -88 95
-98 108 -164 190 -73 92 -154 206 -173 243 -8 15 -18 27 -23 27 -4 0 -8 4 -8
10 0 5 -17 38 -38 72 -21 35 -54 92 -72 128 -19 36 -38 68 -43 71 -5 3 -8 10
-7 15 1 5 -12 38 -28 74 -45 96 -68 150 -83 195 -8 22 -16 42 -19 45 -11 10
-31 91 -25 100 3 6 2 10 -4 10 -9 0 -27 50 -37 97 -3 17 -24 84 -35 114 -10
25 -13 26 -89 24 -44 0 -83 -4 -86 -8 -4 -4 -13 -2 -20 4 -8 7 -14 7 -18 0 -4
-6 -15 -7 -30 -1 -12 4 -27 5 -33 2 -6 -4 -52 -7 -102 -7 -50 0 -91 -2 -91 -5
0 -3 -55 -6 -123 -7 -67 -1 -203 -4 -302 -8 -99 -3 -216 -7 -260 -8 -44 -2
-86 -6 -93 -10 -6 -5 -12 -4 -12 2 0 5 -10 8 -22 5 -13 -3 -93 -7 -178 -9 -85
-3 -207 -7 -270 -10 -133 -5 -377 -15 -535 -20 -217 -8 -461 -16 -513 -19 -56
-2 -80 -19 -60 -43 6 -8 8 -16 5 -19 -3 -3 -1 -19 4 -36 5 -17 11 -50 15 -72
7 -46 11 -69 15 -76 1 -3 3 -9 4 -15 2 -5 4 -12 5 -15 2 -6 6 -26 13 -62 3
-14 9 -35 14 -45 5 -10 9 -25 8 -33 -1 -8 7 -40 17 -70 10 -30 20 -63 22 -75
3 -11 21 -73 41 -137 20 -65 33 -123 29 -130 -4 -6 -3 -8 3 -5 6 4 15 -12 22
-36 7 -23 16 -51 21 -62 24 -57 38 -103 33 -109 -4 -3 -1 -6 5 -6 7 0 11 -3
10 -7 -2 -9 23 -70 50 -124 18 -37 36 -42 102 -28 19 4 55 10 80 14 72 10 104
15 122 21 9 3 32 6 50 8 18 2 47 6 63 9 17 4 46 9 65 11 19 3 44 7 55 10 11 2
42 7 68 10 27 4 56 9 65 10 51 10 120 20 142 22 14 1 25 3 25 4 0 3 38 9 85
15 25 2 56 7 70 10 56 12 135 25 180 30 14 2 25 4 25 5 0 1 16 3 35 5 19 2 35
4 35 5 0 2 14 4 30 5 17 2 30 4 30 5 0 8 145 21 146 13 0 -5 2 -17 5 -28 2
-11 6 -36 9 -55 6 -40 10 -59 18 -80 6 -15 30 -121 30 -130 0 -3 6 -20 14 -37
7 -18 10 -33 7 -33 -4 0 -2 -6 4 -13 6 -7 12 -26 14 -42 2 -17 9 -36 16 -43 6
-7 12 -24 12 -37 0 -13 5 -27 10 -30 6 -4 8 -11 5 -16 -4 -5 -1 -9 4 -9 6 0
10 -3 9 -7 -2 -9 21 -82 31 -98 3 -5 6 -12 7 -15 0 -3 6 -18 14 -35 7 -16 19
-45 26 -62 8 -18 21 -49 30 -68 15 -32 15 -36 0 -51 -10 -9 -19 -14 -22 -11
-3 3 -31 -4 -62 -15 -32 -11 -64 -23 -72 -26 -8 -3 -21 -7 -27 -9 -7 -1 -19
-5 -25 -6 -7 -2 -20 -7 -28 -10 -23 -9 -149 -49 -163 -51 -7 -2 -25 -8 -40
-14 -15 -7 -40 -15 -55 -18 -15 -4 -31 -9 -37 -13 -5 -3 -16 -7 -22 -8 -61
-14 -128 -37 -135 -48 -4 -5 -8 -7 -8 -2 0 4 -16 1 -35 -7 -20 -9 -36 -14 -38
-14 -2 2 -140 -41 -197 -60 -8 -3 -24 -7 -35 -9 -10 -2 -22 -8 -26 -14 -3 -6
-9 -10 -13 -9 -3 1 -32 -7 -64 -16 -31 -10 -60 -18 -64 -18 -17 -2 -19 -18 -4
-41 9 -14 14 -25 10 -25 -4 0 0 -7 7 -16 14 -17 33 -48 45 -74 4 -8 10 -17 14
-20 3 -3 17 -23 30 -45 30 -50 102 -149 113 -153 4 -2 7 -8 7 -13 0 -5 35 -53
78 -107 42 -53 82 -103 87 -110 6 -7 20 -24 33 -37 12 -13 22 -26 22 -29 0 -3
10 -15 23 -28 12 -13 38 -43 57 -67 19 -24 50 -59 68 -77 17 -18 32 -35 32
-38 0 -2 27 -32 60 -66 33 -34 60 -63 60 -66 0 -2 42 -47 94 -99 51 -52 91
-97 88 -100 -3 -3 -1 -5 5 -5 6 0 45 -33 86 -72 42 -40 92 -86 112 -103 20
-16 44 -38 53 -47 9 -10 20 -18 25 -18 4 0 20 -11 35 -25 47 -44 62 -42 166
22 53 32 117 71 144 87 26 15 49 31 52 35 3 3 21 14 40 23 36 19 54 29 105 63
47 31 88 55 108 61 9 4 17 10 17 15 0 5 7 9 15 9 8 0 15 5 15 11 0 5 4 8 9 4
5 -3 12 -1 15 4 3 4 38 28 78 51 40 24 75 47 76 52 2 4 9 8 16 8 7 0 23 9 36
20 13 11 29 20 37 20 7 0 13 5 13 12 0 6 3 9 6 5 4 -3 13 1 21 9 8 8 19 12 24
9 5 -4 9 -1 9 4 0 15 28 14 45 -1 32 -29 45 -38 53 -38 4 0 17 -8 28 -18 28
-26 78 -57 87 -54 4 1 7 -1 7 -6 0 -4 18 -18 40 -32 22 -14 40 -28 40 -33 0
-4 5 -5 10 -2 6 3 10 2 10 -2 0 -10 62 -49 73 -45 4 1 7 -1 7 -6 0 -4 17 -16
38 -27 20 -11 42 -24 49 -30 7 -5 19 -16 28 -23 8 -7 15 -10 15 -6 0 3 19 -5
43 -19 57 -33 151 -84 212 -115 28 -14 52 -28 55 -31 3 -4 20 -14 38 -23 l33
-15 -70 -44 c-39 -24 -71 -47 -71 -51 0 -5 -4 -8 -10 -8 -12 0 -154 -91 -158
-102 -2 -4 -8 -8 -13 -8 -6 0 -43 -22 -84 -50 -41 -27 -79 -50 -84 -50 -6 0
-14 -7 -19 -16 -5 -9 -11 -14 -13 -13 -2 2 -64 -36 -137 -85 -74 -48 -145 -92
-158 -98 -13 -6 -24 -15 -24 -19 0 -4 -9 -11 -21 -14 -12 -4 -32 -17 -46 -29
-13 -11 -28 -21 -31 -20 -9 1 -32 -23 -32 -33 0 -10 119 -69 131 -65 5 1 9 -3
9 -8 0 -6 10 -14 23 -19 12 -5 63 -28 112 -52 50 -24 96 -44 104 -45 7 -2 18
-7 24 -13 6 -6 19 -11 28 -11 10 0 19 -3 21 -7 2 -5 23 -16 48 -25 25 -9 99
-38 165 -63 66 -26 125 -48 130 -49 6 -2 17 -5 25 -9 16 -5 42 -14 50 -16 3 0
30 -9 60 -20 30 -11 58 -17 62 -15 5 3 8 1 8 -4 0 -5 6 -9 13 -10 14 0 37 -6
84 -21 17 -5 34 -7 37 -3 3 3 6 1 6 -4 0 -5 14 -11 32 -12 18 -2 36 -8 40 -15
4 -7 8 -9 8 -6 0 4 17 3 38 -2 104 -26 229 -53 302 -64 19 -3 42 -8 50 -10 8
-3 31 -7 50 -9 76 -10 136 -18 155 -22 29 -6 124 -16 165 -18 21 0 35 4 36 12
1 6 3 14 4 17 3 7 5 13 15 70 5 28 9 52 10 55 1 3 5 25 9 50 5 25 10 54 13 65
2 11 7 36 9 55 3 19 10 49 15 67 6 18 12 52 13 76 2 25 6 48 9 53 3 5 8 27 11
49 4 22 8 47 11 55 2 8 6 31 9 50 3 19 9 49 12 65 4 17 8 41 9 55 2 14 4 25 5
25 1 0 3 9 5 20 2 11 9 49 16 84 6 35 13 74 14 85 1 12 3 21 4 21 3 0 6 16 15
65 7 40 14 78 21 118 3 15 8 40 10 56 2 15 7 37 10 47 4 11 8 32 10 47 4 32
11 67 25 142 6 30 13 65 16 78 2 12 6 34 10 50 3 15 7 41 10 57 3 17 11 62 19
100 7 39 16 86 19 105 3 19 9 49 12 65 4 17 7 42 8 58 0 15 5 27 10 27 4 0 5
7 2 16 -3 8 -2 23 3 33 5 9 12 35 15 57 3 21 8 53 12 69 3 17 8 41 9 55 2 14
4 25 5 25 2 0 6 23 14 75 2 14 5 25 6 25 1 0 3 16 6 35 5 41 12 75 14 75 1 0
4 11 5 25 5 31 11 64 20 110 10 53 13 65 15 65 1 0 3 11 5 25 4 42 16 114 20
120 2 3 6 23 9 45 4 22 8 47 11 55 2 8 6 31 9 50 3 19 8 48 11 64 8 42 -13 80
-67 116 -26 18 -48 37 -48 42 0 4 -5 8 -12 8 -14 0 -13 -1 -165 148 -68 66
-123 122 -123 126 0 6 -32 45 -62 78 -10 10 -18 21 -18 24 0 3 -13 23 -30 44
-16 21 -30 42 -30 47 0 5 -9 19 -20 31 -12 12 -18 22 -15 22 3 0 0 7 -7 15 -7
9 -17 21 -23 28 -5 7 -26 44 -45 82 -19 39 -37 72 -40 75 -7 7 -41 68 -41 75
0 2 -9 26 -20 52 -42 98 -47 109 -69 168 -12 33 -27 74 -34 90 -6 17 -11 35
-12 40 0 6 -4 17 -7 25 -4 8 -8 25 -10 37 -2 12 -6 26 -10 29 -4 4 -7 18 -7
30 0 13 -4 25 -9 28 -4 3 -11 22 -14 43 -3 21 -9 52 -12 68 -4 17 -8 41 -10
55 -2 14 -4 25 -5 25 -2 0 -6 21 -16 85 -4 25 -9 52 -10 60 -2 8 -4 36 -5 63
-2 26 -5 47 -8 47 -13 0 -19 453 -8 605 3 44 6 80 7 80 1 0 3 23 6 50 2 28 6
61 10 75 3 14 8 47 11 75 2 27 8 54 12 60 4 5 7 17 6 25 -1 8 3 29 7 45 5 17
11 44 13 60 3 17 10 41 15 55 5 14 11 34 13 45 1 11 6 26 10 33 5 6 6 12 2 12
-3 0 0 10 6 23 7 12 14 35 16 51 2 17 7 32 11 35 4 4 8 14 10 23 1 10 11 35
21 57 17 40 17 40 42 23 14 -9 32 -23 40 -30 59 -52 86 -72 98 -72 8 0 11 -3
8 -6 -7 -7 105 -90 136 -100 9 -4 17 -10 17 -15 0 -5 3 -8 8 -7 4 2 28 -12 55
-30 26 -18 47 -29 47 -25 0 4 4 3 8 -4 6 -10 263 -144 288 -150 7 -2 93 -33
194 -71 8 -3 20 -6 25 -7 6 0 15 -4 21 -7 6 -4 21 -9 35 -12 24 -5 64 -15 84
-20 6 -1 28 -8 50 -14 22 -6 58 -13 80 -16 22 -3 51 -8 64 -10 13 -3 49 -8 80
-11 31 -3 72 -8 91 -11 42 -6 396 -6 425 0 31 6 146 19 182 20 18 1 33 3 33 6
0 3 10 7 23 8 12 1 67 13 122 27 125 32 129 33 133 35 1 2 5 3 10 4 40 11 99
31 109 39 7 5 17 6 23 2 5 -3 10 -1 10 4 0 6 5 11 11 11 5 0 29 8 52 19 23 10
67 29 97 42 30 13 57 26 60 29 3 3 23 14 45 25 22 10 56 28 76 41 20 13 40 20
43 17 3 -4 6 -2 6 3 0 5 20 20 45 34 25 14 45 28 45 32 0 5 5 8 11 8 6 0 21 8
34 18 12 9 33 24 45 32 60 39 190 140 211 163 16 17 40 24 37 10 -1 -5 4 -21
10 -36 7 -16 12 -34 12 -41 0 -6 4 -16 9 -21 6 -6 13 -26 16 -45 3 -19 10 -39
15 -46 6 -6 7 -14 3 -17 -3 -4 -1 -12 5 -19 6 -7 11 -16 11 -20 1 -5 1 -9 2
-10 1 -5 10 -43 14 -63 7 -34 13 -60 15 -60 1 0 4 -13 6 -30 2 -16 7 -41 11
-55 10 -39 12 -53 15 -82 1 -16 5 -28 8 -28 4 0 7 -19 9 -42 2 -40 8 -83 11
-83 1 0 3 -29 6 -65 2 -36 7 -78 10 -95 6 -38 7 -382 0 -457 -4 -53 -13 -130
-22 -203 -2 -16 -5 -49 -8 -71 -2 -23 -6 -46 -9 -50 -3 -5 -8 -27 -11 -49 -4
-22 -11 -56 -16 -75 -5 -19 -12 -51 -15 -70 -8 -43 -10 -51 -18 -70 -4 -8 -8
-24 -10 -35 -1 -11 -6 -26 -10 -32 -5 -7 -6 -13 -3 -13 3 0 -2 -19 -10 -42 -9
-24 -17 -47 -18 -53 -2 -5 -8 -23 -15 -40 -7 -16 -13 -38 -14 -47 -1 -10 -6
-18 -11 -18 -5 0 -7 -3 -4 -6 4 -3 0 -22 -9 -42 -34 -83 -86 -197 -93 -202 -4
-3 -10 -17 -13 -32 -4 -15 -13 -33 -21 -40 -7 -8 -17 -24 -20 -36 -4 -12 -12
-22 -17 -22 -6 0 -8 -4 -4 -9 3 -5 -2 -17 -11 -25 -8 -9 -13 -16 -9 -16 4 0 0
-7 -7 -15 -31 -34 -38 -45 -31 -45 4 0 -1 -7 -11 -15 -11 -8 -16 -15 -12 -15
4 0 -4 -15 -18 -32 -15 -18 -30 -38 -34 -43 -53 -73 -69 -92 -84 -106 -10 -9
-18 -20 -18 -25 0 -5 -9 -16 -20 -24 -11 -8 -20 -20 -20 -27 0 -7 -3 -13 -8
-13 -4 0 -46 -37 -93 -82 -47 -46 -105 -99 -128 -118 -115 -92 -167 -140 -154
-140 5 0 10 -6 10 -12 0 -7 4 -35 9 -63 4 -27 8 -58 8 -67 0 -10 4 -18 8 -18
4 0 7 -8 6 -17 0 -10 2 -27 5 -38 6 -27 20 -106 23 -127 1 -10 3 -19 4 -20 1
-2 3 -17 5 -33 1 -17 7 -40 13 -52 6 -11 9 -23 5 -26 -3 -3 -2 -14 2 -24 4
-10 9 -34 10 -53 1 -19 3 -37 5 -40 2 -3 4 -9 5 -15 2 -5 4 -12 5 -15 1 -3 3
-16 4 -30 2 -14 5 -36 9 -50 4 -14 8 -38 11 -55 2 -16 7 -37 10 -45 3 -8 8
-33 11 -55 7 -53 23 -142 29 -163 3 -9 8 -39 12 -67 3 -27 8 -53 10 -56 3 -6
12 -50 19 -99 4 -27 22 -119 31 -160 3 -14 7 -36 10 -50 2 -14 6 -34 9 -46 3
-12 7 -39 10 -60 4 -21 8 -48 10 -59 19 -88 24 -117 23 -123 -1 -4 1 -14 5
-22 3 -8 8 -31 11 -50 3 -19 9 -51 12 -70 3 -19 8 -44 9 -55 2 -11 4 -21 5
-22 2 -2 3 -11 5 -20 1 -10 5 -36 10 -58 4 -22 9 -49 11 -60 2 -11 8 -42 14
-70 12 -62 19 -100 26 -145 3 -19 7 -42 10 -49 3 -8 7 -35 10 -60 3 -25 8 -50
12 -56 4 -5 7 -17 7 -25 1 -8 7 -47 14 -87 17 -97 19 -108 21 -108 2 0 5 -20
16 -85 4 -25 9 -52 11 -60 1 -8 5 -28 7 -45 3 -16 5 -30 6 -30 1 0 3 -9 5 -20
2 -11 7 -36 11 -55 9 -48 15 -82 16 -99 1 -11 22 -12 112 -8 61 3 120 8 131
10 11 3 40 8 65 12 70 11 93 14 120 20 14 3 39 8 55 11 17 3 50 10 75 16 25 6
54 12 65 13 11 2 20 4 20 5 0 1 7 3 15 5 8 1 44 11 80 20 36 9 70 18 75 19 6
1 37 11 70 21 33 10 67 19 75 20 8 2 60 17 115 35 55 17 123 39 150 47 28 9
52 18 55 22 3 3 15 7 27 9 12 2 49 14 82 27 33 12 62 20 65 17 3 -3 6 0 6 6 0
10 55 28 73 24 4 -1 7 2 7 8 0 5 16 12 35 16 19 3 35 10 35 15 0 5 11 9 25 9
14 0 25 5 25 11 0 6 7 9 15 5 8 -3 19 2 24 12 5 9 12 16 15 14 4 -1 27 6 52
18 26 11 50 20 55 20 5 0 9 5 9 10 0 6 9 10 20 10 11 0 20 5 20 10 0 6 9 10
21 10 11 0 17 4 14 10 -3 6 -1 10 5 10 12 0 110 62 110 70 0 3 -24 21 -53 40
-28 19 -58 41 -65 48 -7 6 -18 12 -23 12 -5 0 -33 17 -62 38 -29 21 -64 44
-79 52 -16 7 -28 17 -28 22 0 4 -5 8 -10 8 -6 0 -58 31 -116 70 -59 38 -111
70 -115 70 -5 0 -9 5 -9 10 0 6 -6 10 -13 10 -7 0 -23 9 -35 20 -12 11 -25 20
-30 20 -4 0 -19 10 -32 23 -14 12 -26 20 -28 18 -2 -1 -14 6 -27 17 -13 11
-26 18 -29 15 -3 -4 -6 -1 -6 5 0 7 -5 12 -12 12 -6 0 -26 11 -44 25 -18 14
-37 25 -43 25 -6 0 -11 4 -11 9 0 4 -20 19 -45 32 -44 23 -66 49 -42 49 17 0
320 153 337 170 3 3 21 14 40 24 19 10 52 28 73 39 20 12 37 24 37 29 0 4 5 8
11 8 6 0 31 13 56 30 24 16 48 30 52 30 5 0 11 7 15 15 3 8 10 15 16 15 11 0
113 71 118 82 2 5 8 8 14 8 5 0 16 6 23 13 8 6 20 17 28 22 7 6 23 18 34 29
21 18 23 18 52 -3 16 -12 32 -21 35 -21 4 0 30 -16 59 -35 28 -19 57 -35 64
-35 6 0 13 -4 15 -8 2 -5 62 -43 133 -86 142 -86 345 -209 385 -235 14 -8 28
-14 33 -13 4 1 7 -3 7 -8 0 -6 18 -18 40 -27 22 -10 40 -21 40 -25 0 -5 6 -8
14 -8 8 0 16 -3 18 -7 2 -5 26 -20 53 -35 50 -26 50 -26 75 -7 28 22 114 98
167 147 19 17 37 32 39 32 7 0 348 343 371 373 12 15 24 28 27 28 3 -1 7 2 8
7 1 4 19 24 39 45 21 20 36 37 33 37 -3 0 9 15 27 34 19 19 50 53 68 76 19 24
41 48 48 56 7 7 13 15 13 18 0 4 11 19 24 34 14 15 50 61 82 102 31 41 60 77
65 78 5 2 9 9 9 16 0 6 13 27 30 46 16 19 29 39 30 43 0 4 11 20 25 35 14 15
25 32 25 39 0 7 5 13 10 13 6 0 10 6 10 14 0 8 4 16 8 18 5 2 26 30 47 63 22
33 43 63 48 66 5 3 7 9 5 12 -1 4 4 14 12 24 20 24 19 45 -2 49 -9 1 -128 39
-265 84 -136 45 -255 83 -263 85 -8 2 -17 4 -20 5 -3 1 -8 2 -12 1 -5 0 -8 4
-8 10 0 5 -5 7 -10 4 -5 -3 -16 -3 -22 2 -7 4 -17 8 -23 9 -12 2 -104 33 -125
41 -8 4 -22 8 -30 9 -8 1 -49 14 -90 29 -41 14 -83 27 -92 28 -10 1 -18 4 -18
8 0 6 -11 9 -87 25 -18 3 -33 10 -33 14 0 5 -18 11 -40 15 -22 4 -42 11 -46
16 -3 5 8 38 25 73 17 36 33 76 37 90 3 14 10 26 15 26 5 0 8 3 7 8 -3 16 15
62 25 62 6 0 8 3 4 6 -3 4 0 21 8 39 7 19 11 36 7 39 -3 3 0 6 6 6 7 0 11 3
10 8 -1 4 8 37 20 74 13 36 24 76 25 87 1 12 4 21 8 21 4 0 9 12 12 28 8 41
15 72 27 108 6 19 9 38 5 44 -3 5 -2 10 3 10 5 0 9 6 10 13 0 6 3 23 7 37 5
22 13 61 18 95 3 14 30 24 42 15 6 -4 36 -10 68 -13 31 -4 61 -8 65 -11 5 -3
27 -6 50 -7 23 -2 42 -5 42 -8 0 -4 12 -7 28 -7 45 -2 147 -19 147 -24 0 -1
16 -3 35 -5 42 -5 64 -8 195 -30 55 -9 110 -18 122 -20 13 -2 41 -6 63 -10 72
-12 95 -16 110 -16 8 -1 35 -6 60 -11 25 -5 59 -11 75 -12 17 -2 44 -6 60 -10
17 -3 44 -8 60 -11 17 -2 48 -7 70 -11 22 -4 49 -8 60 -9 11 -1 20 -3 20 -4 0
-1 21 -4 47 -7 27 -2 47 -1 46 4 -1 4 6 25 16 47 21 47 69 173 88 230 7 22 17
43 23 47 5 4 7 8 3 8 -4 0 0 19 8 43 9 23 18 53 20 66 3 13 13 48 24 78 10 29
16 53 13 53 -3 0 0 7 7 15 7 8 9 15 6 15 -4 0 -2 8 3 18 6 11 13 32 16 48 3
16 7 34 9 41 1 7 5 16 9 19 4 4 7 17 7 29 0 12 3 25 7 29 4 3 8 14 9 24 1 9
12 58 24 107 12 50 23 99 26 110 23 119 30 165 25 172 -3 4 -24 9 -46 9 -22 1
-125 5 -230 9 -104 3 -239 8 -300 10 -60 2 -173 6 -250 9 -77 3 -210 8 -295
11 -85 4 -198 8 -250 11 -52 3 -106 4 -120 4 -14 -1 -29 -2 -35 -1 -82 4 -293
12 -415 16 -222 7 -429 15 -550 21 -58 2 -114 4 -125 4 -11 -1 -24 -1 -30 -1
-97 6 -177 6 -186 0 -11 -6 -19 -35 -22 -81 -1 -10 -4 -18 -7 -18 -4 0 -7 -6
-8 -12 -1 -24 -10 -55 -37 -129 -14 -41 -28 -81 -30 -89 -2 -8 -4 -16 -5 -17
-2 -2 -4 -7 -5 -13 -1 -5 -4 -12 -5 -15 -1 -3 -3 -8 -4 -12 -1 -5 -10 -23 -19
-40 -10 -18 -15 -33 -12 -33 3 0 -7 -24 -22 -52 -15 -29 -26 -58 -25 -64 1 -6
-5 -17 -13 -24 -8 -7 -15 -21 -15 -31 0 -11 -4 -19 -10 -19 -5 0 -10 -9 -10
-19 0 -11 -3 -21 -7 -23 -5 -1 -19 -25 -33 -53 -13 -27 -29 -53 -35 -57 -5 -4
-6 -8 -2 -8 5 0 -1 -13 -12 -29 -12 -16 -21 -34 -21 -40 0 -5 -8 -15 -17 -20
-10 -6 -15 -11 -11 -11 6 0 -48 -89 -70 -115 -4 -5 -11 -18 -15 -27 -3 -10
-11 -18 -17 -18 -5 0 -10 -6 -10 -12 0 -11 -13 -29 -60 -85 -5 -7 -10 -15 -10
-18 0 -4 -13 -21 -30 -38 -16 -18 -31 -36 -32 -42 -1 -5 -18 -26 -38 -47 -70
-72 -110 -118 -104 -118 3 0 -12 -15 -34 -32 -23 -18 -41 -38 -41 -43 -1 -6
-14 -19 -31 -28 l-30 -18 9 23 c5 13 9 25 9 28 0 3 5 25 12 50 7 25 14 56 17
69 2 13 8 31 12 40 5 9 9 19 10 24 1 4 1 8 2 10 1 3 7 29 12 57 3 14 10 45 16
70 19 76 35 149 47 220 10 62 13 75 14 80 2 3 2 8 1 12 0 4 4 30 9 57 5 28 12
79 16 113 3 35 8 74 10 88 20 104 29 289 29 580 0 279 -10 513 -22 533 -3 5
-7 42 -9 81 -2 39 -7 78 -10 86 -3 8 -8 38 -10 65 -7 72 -11 98 -17 115 -3 8
-9 33 -12 55 -12 68 -15 84 -21 113 -4 15 -7 37 -8 50 0 12 -4 22 -8 22 -5 0
-7 3 -6 8 1 4 -2 26 -6 49 -4 24 -6 44 -4 46 1 2 -3 11 -11 20 -7 10 -11 17
-8 17 4 0 -1 19 -9 43 -8 23 -17 53 -19 67 -2 14 -11 50 -20 80 -10 30 -18 60
-20 65 -1 6 -5 17 -8 25 -3 8 -17 50 -31 92 -14 43 -44 123 -66 179 -22 56
-40 105 -40 111 0 5 -7 16 -15 25 -8 8 -13 19 -10 24 4 5 1 9 -5 9 -6 0 -9 4
-5 9 3 5 1 12 -5 16 -5 3 -10 15 -10 26 0 10 -4 19 -10 19 -5 0 -9 3 -8 8 1 4
-11 33 -25 64 -15 32 -27 61 -26 64 0 4 -3 10 -8 13 -5 3 -30 44 -55 91 -50
95 -67 125 -127 222 -22 37 -41 72 -41 78 0 6 -4 8 -10 5 -5 -3 -10 0 -10 7 0
7 -18 37 -40 66 -22 29 -40 55 -40 58 0 3 -6 12 -12 19 -7 8 -21 25 -30 37
-87 115 -136 174 -175 215 -18 18 -30 33 -27 33 9 0 -214 218 -281 275 -32 28
-69 60 -82 73 -13 12 -26 22 -30 22 -3 0 -22 14 -42 30 -48 41 -52 43 -83 57
-25 11 -28 10 -29 -5 -1 -19 -1 -20 -24 -127 -9 -44 -19 -93 -21 -110 -3 -16
-9 -39 -14 -50 -7 -17 -48 -148 -56 -180 -9 -39 -113 -266 -125 -275 -4 -3
-11 -18 -14 -33 -4 -15 -10 -27 -14 -27 -3 0 -17 -20 -31 -45 -14 -25 -28 -45
-32 -45 -5 0 -8 -7 -8 -15 0 -8 -4 -15 -10 -15 -5 0 -10 -7 -10 -15 0 -8 -4
-15 -10 -15 -5 0 -10 -4 -10 -9 0 -26 -293 -321 -319 -321 -3 0 -20 -12 -37
-27 -16 -16 -41 -33 -54 -40 -14 -7 -49 -26 -77 -42 -29 -17 -53 -27 -53 -23
0 4 -4 2 -8 -5 -9 -14 -181 -75 -193 -67 -5 3 -9 1 -9 -4 0 -5 -6 -9 -12 -9
-7 0 -31 -4 -53 -8 -22 -4 -62 -9 -90 -11 -27 -1 -52 -4 -55 -4 -11 -4 -148 1
-180 5 -19 3 -55 8 -80 12 -53 7 -60 8 -80 16 -21 8 -103 28 -117 29 -7 1 -13
5 -13 10 0 5 -6 8 -12 6 -7 -1 -35 8 -62 20 -27 12 -50 22 -52 22 -2 0 -24 13
-50 30 -26 16 -51 27 -55 24 -5 -3 -9 -1 -9 5 0 5 -25 27 -56 47 -30 20 -99
80 -152 133 -91 90 -119 121 -167 187 -11 15 -26 33 -32 40 -7 7 -13 17 -13
23 0 5 -6 16 -14 24 -37 36 -153 255 -193 362 -8 22 -19 49 -24 60 -4 11 -10
29 -11 40 -2 11 -6 22 -10 25 -4 3 -9 17 -12 32 -4 23 -20 81 -46 173 -5 17
-12 50 -15 75 -7 51 -33 160 -34 144z"/>
<path d="M7922 9936 c-7 -19 -15 -52 -17 -73 -2 -21 -4 -38 -5 -38 -1 0 -2
-15 -3 -33 -1 -17 0 -32 3 -32 3 0 6 -23 7 -51 1 -28 5 -59 9 -68 4 -9 8 -21
10 -28 7 -37 114 -223 114 -200 0 4 13 -7 30 -23 119 -117 327 -152 480 -80
61 28 143 80 126 80 -3 0 12 16 34 36 22 20 40 43 40 50 0 8 4 14 9 14 12 0
64 120 65 152 1 15 4 28 9 28 13 0 8 120 -5 121 -7 1 -22 3 -33 4 -11 1 -45 5
-75 8 -125 14 -212 28 -330 52 -84 17 -126 26 -182 41 -35 9 -72 18 -84 20
-11 2 -56 15 -100 29 -43 14 -81 25 -84 25 -3 0 -12 -15 -18 -34z"/>
<path d="M10280 9956 c-6 -6 -10 -6 -10 -2 0 5 -6 4 -13 -2 -7 -6 -28 -14 -47
-17 -18 -3 -37 -8 -42 -11 -5 -3 -21 -8 -36 -11 -40 -7 -45 -9 -67 -16 -11 -3
-31 -8 -45 -11 -14 -3 -36 -7 -50 -11 -50 -11 -66 -14 -140 -29 -77 -15 -78
-15 -82 -17 -2 -1 -14 -2 -28 -4 -14 -1 -45 -5 -70 -9 -51 -7 -126 -16 -175
-20 -32 -4 -81 -25 -58 -26 15 0 13 -21 -2 -32 -7 -5 -6 -8 0 -8 6 0 12 -16
13 -37 4 -47 38 -150 63 -184 10 -15 19 -29 19 -32 0 -12 70 -83 115 -116 58
-43 151 -85 171 -77 8 3 14 1 14 -4 0 -16 190 -3 220 15 5 3 20 8 31 10 12 3
29 11 38 19 9 8 23 16 31 18 23 5 172 158 154 158 -3 0 1 6 9 14 8 8 27 53 42
99 37 114 38 242 4 329 -11 27 -39 34 -59 14z"/>
</g>
</svg>
