<svg xmlns="http://www.w3.org/2000/svg" width="43" height="43" viewBox="0 0 43 43" fill="none">
  <path fill-rule="evenodd" clip-rule="evenodd" d="M24.2966 2.24952C25.1916 2.53165 25.8002 3.36165 25.8002 4.30006V15.0501L34.4002 15.0501C35.2019 15.0501 35.937 15.4961 36.3072 16.2072C36.6774 16.9182 36.6213 17.7762 36.1616 18.433L21.1116 39.933C20.5734 40.7018 19.5988 41.0327 18.7038 40.7506C17.8088 40.4685 17.2002 39.6385 17.2002 38.7001L17.2002 27.9501H8.6002C7.79852 27.9501 7.06342 27.504 6.6932 26.7929C6.32297 26.0819 6.37912 25.2239 6.83885 24.5671L21.8889 3.06711C22.427 2.29834 23.4016 1.9674 24.2966 2.24952Z" fill="#030303"/>
</svg>
