<svg xmlns="http://www.w3.org/2000/svg" width="30" height="24" viewBox="0 0 30 24" fill="none">
  <path d="M29.5779 0.808411C29.5794 0.715351 29.5618 0.622968 29.5263 0.536954C29.4907 0.45094 29.4379 0.373117 29.3711 0.30828C29.3044 0.243443 29.225 0.192965 29.138 0.159957C29.051 0.126948 28.9581 0.112108 28.8652 0.116351C28.5706 0.100169 28.2757 0.142291 27.9975 0.240302L26.1796 0.891045L23.7315 1.77936L21.583 2.56438L16.3255 4.48562L11.0782 6.42752L7.82449 7.6567L4.94263 8.76193C3.9097 9.1751 2.8148 9.60893 1.76122 10.0737C1.46523 10.1959 1.18996 10.3631 0.945207 10.5695C0.869019 10.6302 0.806268 10.706 0.760938 10.7922C0.715608 10.8783 0.688689 10.973 0.68189 11.0701C0.675091 11.1672 0.688561 11.2647 0.721444 11.3564C0.754326 11.448 0.805904 11.5318 0.872903 11.6025C0.993997 11.7584 1.15975 11.8737 1.34805 11.933C3.47587 12.6251 5.66567 13.1415 7.73152 13.9989C7.90712 14.0712 9.42552 14.9698 9.86968 15.2797L22.9155 7.09892L15.1066 18.3062C15.1892 18.3062 16.532 19.2874 16.625 19.3391C17.6579 20.0311 18.6185 20.7232 19.6102 21.4049C20.6018 22.0867 21.4591 22.7477 22.3267 23.4708C22.5353 23.6475 22.7833 23.7715 23.0498 23.8323C23.2982 23.9061 23.5627 23.9053 23.8106 23.83C24.0585 23.7547 24.2789 23.6083 24.4442 23.4088C24.6148 23.204 24.7382 22.9642 24.8058 22.7064C25.6252 19.4217 26.4206 16.1301 27.1918 12.8317C27.9562 9.58827 28.7309 6.34489 29.361 3.07051C29.4928 2.41333 29.5722 1.74673 29.5985 1.07697C29.6009 0.986978 29.594 0.896985 29.5779 0.808411Z" fill="var(--iconColor)"/>
</svg>