<svg xmlns="http://www.w3.org/2000/svg" width="32" height="32" viewBox="0 0 32 32" fill="none">
  <g clip-path="url(#clip0_14_7481)">
    <path d="M16 0.90625C7.66563 0.90625 0.90625 7.66563 0.90625 16C0.90625 24.3344 7.66563 31.0938 16 31.0938C24.3344 31.0938 31.0938 24.3344 31.0938 16C31.0938 7.66563 24.3344 0.90625 16 0.90625ZM17.2141 28.4031C17.1484 28.4031 17.0828 28.4031 16.9844 28.4359V21.3156C18.6906 21.2828 20.2328 21.25 21.6438 21.1516C20.3969 24.9906 18.0672 27.55 17.2141 28.4031ZM14.7859 28.4031C13.9 27.5172 11.6031 24.9578 10.3563 21.1516C11.7344 21.25 13.3094 21.3156 15.0156 21.3156V28.4359C14.95 28.4359 14.8844 28.4031 14.7859 28.4031ZM3.53125 16C3.53125 15.1797 3.62969 14.3594 3.76094 13.5719C4.48281 13.4406 5.86094 13.2438 7.79688 13.0469C7.63281 13.9984 7.53438 14.9828 7.53438 16.0328C7.53438 17.0828 7.63281 18.0672 7.76406 18.9859C5.86094 18.7891 4.45 18.5922 3.72813 18.4609C3.62969 17.6406 3.53125 16.8203 3.53125 16ZM9.53594 16C9.53594 14.8844 9.66719 13.8344 9.86406 12.85C11.3734 12.7516 13.0797 12.6531 15.0156 12.6531V19.3469C13.1125 19.3141 11.3734 19.2484 9.83125 19.1172C9.66719 18.1656 9.53594 17.1156 9.53594 16ZM17.1813 3.59688C18.0672 4.48281 20.3313 7.10781 21.6109 10.8484C20.2328 10.75 18.6906 10.6844 16.9844 10.6844V3.56406C17.05 3.56406 17.1156 3.59688 17.1813 3.59688ZM15.0156 3.56406V10.6844C13.3094 10.7172 11.7672 10.75 10.3891 10.8484C11.6359 7.10781 13.9328 4.48281 14.7859 3.59688C14.8844 3.59688 14.95 3.56406 15.0156 3.56406ZM16.9844 19.3469V12.6531C18.8875 12.6859 20.6266 12.7516 22.1359 12.85C22.3328 13.8344 22.4641 14.8844 22.4641 16C22.4641 17.1156 22.3656 18.1656 22.1688 19.15C20.6594 19.2484 18.9203 19.3141 16.9844 19.3469ZM24.1703 13.0469C26.1063 13.2438 27.4844 13.4406 28.2063 13.5719C28.3703 14.3594 28.4688 15.1797 28.4688 16C28.4688 16.8203 28.3703 17.6406 28.2391 18.4281C27.5172 18.5594 26.1391 18.7563 24.2031 18.9531C24.3672 18.0016 24.4328 17.0172 24.4328 15.9672C24.4328 14.9828 24.3344 13.9656 24.1703 13.0469ZM27.6156 11.4719C26.6969 11.3406 25.3844 11.1766 23.7109 11.0125C22.9234 8.19063 21.5453 5.92656 20.3969 4.31875C23.7109 5.56563 26.3359 8.19063 27.6156 11.4719ZM11.6031 4.31875C10.4219 5.89375 9.07656 8.15781 8.28906 10.9797C6.64844 11.1109 5.33594 11.3078 4.38438 11.4391C5.66406 8.19063 8.32188 5.56563 11.6031 4.31875ZM4.38438 20.5281C5.30313 20.6594 6.61563 20.8234 8.25625 20.9875C9.04375 23.8094 10.3563 26.0734 11.5375 27.6484C8.25625 26.3688 5.66406 23.7766 4.38438 20.5281ZM20.4625 27.6484C21.6438 26.0734 22.9563 23.8422 23.7438 21.0203C25.3844 20.8891 26.6969 20.6922 27.6156 20.5609C26.3359 23.7766 23.7438 26.3688 20.4625 27.6484Z" fill="var(--iconColor)"/>
  </g>
  <defs>
    <clipPath id="clip0_14_7481">
      <rect width="30.1875" height="30.1875" fill="white" transform="translate(0.90625 0.90625)"/>
    </clipPath>
  </defs>
</svg>