<svg width="168" height="85" viewBox="0 0 168 85" fill="none" xmlns="http://www.w3.org/2000/svg">
<g clip-path="url(#clip0_117_2036)">
<rect width="201.461" height="129.944" transform="translate(-16.7305 50.9819)" fill="#E1D33E"/>
<path d="M52.6592 73.7761C51.8806 73.7761 51.1766 73.6427 50.5472 73.3761C49.9286 73.1094 49.4379 72.7254 49.0752 72.2241C48.7126 71.7227 48.5259 71.1307 48.5152 70.4481H50.9152C50.9472 70.9067 51.1072 71.2694 51.3952 71.5361C51.6939 71.8027 52.0992 71.9361 52.6112 71.9361C53.1339 71.9361 53.5446 71.8134 53.8432 71.5681C54.1419 71.3121 54.2912 70.9814 54.2912 70.5761C54.2912 70.2454 54.1899 69.9734 53.9872 69.7601C53.7846 69.5467 53.5286 69.3814 53.2192 69.2641C52.9206 69.1361 52.5046 68.9974 51.9712 68.8481C51.2459 68.6347 50.6539 68.4267 50.1952 68.2241C49.7472 68.0107 49.3579 67.6961 49.0272 67.2801C48.7072 66.8534 48.5472 66.2881 48.5472 65.5841C48.5472 64.9227 48.7126 64.3467 49.0432 63.8561C49.3739 63.3654 49.8379 62.9921 50.4352 62.7361C51.0326 62.4694 51.7152 62.3361 52.4832 62.3361C53.6352 62.3361 54.5686 62.6187 55.2832 63.1841C56.0086 63.7387 56.4086 64.5174 56.4832 65.5201H54.0192C53.9979 65.1361 53.8326 64.8214 53.5232 64.5761C53.2246 64.3201 52.8246 64.1921 52.3232 64.1921C51.8859 64.1921 51.5339 64.3041 51.2672 64.5281C51.0112 64.7521 50.8832 65.0774 50.8832 65.5041C50.8832 65.8027 50.9792 66.0534 51.1712 66.2561C51.3739 66.4481 51.6192 66.6081 51.9072 66.7361C52.2059 66.8534 52.6219 66.9921 53.1552 67.1521C53.8806 67.3654 54.4726 67.5787 54.9312 67.7921C55.3899 68.0054 55.7846 68.3254 56.1152 68.7521C56.4459 69.1787 56.6112 69.7387 56.6112 70.4321C56.6112 71.0294 56.4566 71.5841 56.1472 72.0961C55.8379 72.6081 55.3846 73.0187 54.7872 73.3281C54.1899 73.6267 53.4806 73.7761 52.6592 73.7761ZM66.7932 69.0401C66.7932 69.3601 66.7719 69.6481 66.7292 69.9041H60.2492C60.3026 70.5441 60.5266 71.0454 60.9212 71.4081C61.3159 71.7707 61.8012 71.9521 62.3772 71.9521C63.2092 71.9521 63.8012 71.5947 64.1532 70.8801H66.5692C66.3132 71.7334 65.8226 72.4374 65.0972 72.9921C64.3719 73.5361 63.4812 73.8081 62.4252 73.8081C61.5719 73.8081 60.8039 73.6214 60.1212 73.2481C59.4492 72.8641 58.9212 72.3254 58.5372 71.6321C58.1639 70.9387 57.9772 70.1387 57.9772 69.2321C57.9772 68.3147 58.1639 67.5094 58.5372 66.8161C58.9106 66.1227 59.4332 65.5894 60.1052 65.2161C60.7772 64.8427 61.5506 64.6561 62.4252 64.6561C63.2679 64.6561 64.0199 64.8374 64.6812 65.2001C65.3532 65.5627 65.8706 66.0801 66.2332 66.7521C66.6066 67.4134 66.7932 68.1761 66.7932 69.0401ZM64.4732 68.4001C64.4626 67.8241 64.2546 67.3654 63.8492 67.0241C63.4439 66.6721 62.9479 66.4961 62.3612 66.4961C61.8066 66.4961 61.3372 66.6667 60.9532 67.0081C60.5799 67.3387 60.3506 67.8027 60.2652 68.4001H64.4732ZM70.6682 61.8241V73.6641H68.4282V61.8241H70.6682ZM81.1213 69.0401C81.1213 69.3601 81.1 69.6481 81.0573 69.9041H74.5773C74.6307 70.5441 74.8547 71.0454 75.2493 71.4081C75.644 71.7707 76.1293 71.9521 76.7053 71.9521C77.5373 71.9521 78.1293 71.5947 78.4813 70.8801H80.8973C80.6413 71.7334 80.1507 72.4374 79.4253 72.9921C78.7 73.5361 77.8093 73.8081 76.7533 73.8081C75.9 73.8081 75.132 73.6214 74.4493 73.2481C73.7773 72.8641 73.2493 72.3254 72.8653 71.6321C72.492 70.9387 72.3053 70.1387 72.3053 69.2321C72.3053 68.3147 72.492 67.5094 72.8653 66.8161C73.2387 66.1227 73.7613 65.5894 74.4333 65.2161C75.1053 64.8427 75.8787 64.6561 76.7533 64.6561C77.596 64.6561 78.348 64.8374 79.0093 65.2001C79.6813 65.5627 80.1987 66.0801 80.5613 66.7521C80.9347 67.4134 81.1213 68.1761 81.1213 69.0401ZM78.8013 68.4001C78.7907 67.8241 78.5827 67.3654 78.1773 67.0241C77.772 66.6721 77.276 66.4961 76.6893 66.4961C76.1347 66.4961 75.6653 66.6667 75.2813 67.0081C74.908 67.3387 74.6787 67.8027 74.5933 68.4001H78.8013ZM82.1803 69.2321C82.1803 68.3147 82.367 67.5147 82.7403 66.8321C83.1137 66.1387 83.631 65.6054 84.2923 65.2321C84.9537 64.8481 85.711 64.6561 86.5643 64.6561C87.663 64.6561 88.5697 64.9334 89.2843 65.4881C90.0097 66.0321 90.495 66.8001 90.7403 67.7921H88.3243C88.1963 67.4081 87.9777 67.1094 87.6683 66.8961C87.3697 66.6721 86.9963 66.5601 86.5483 66.5601C85.9083 66.5601 85.4017 66.7947 85.0283 67.2641C84.655 67.7227 84.4683 68.3787 84.4683 69.2321C84.4683 70.0747 84.655 70.7307 85.0283 71.2001C85.4017 71.6587 85.9083 71.8881 86.5483 71.8881C87.455 71.8881 88.047 71.4827 88.3243 70.6721H90.7403C90.495 71.6321 90.0097 72.3947 89.2843 72.9601C88.559 73.5254 87.6523 73.8081 86.5643 73.8081C85.711 73.8081 84.9537 73.6214 84.2923 73.2481C83.631 72.8641 83.1137 72.3307 82.7403 71.6481C82.367 70.9547 82.1803 70.1494 82.1803 69.2321ZM94.9893 66.6401V70.9281C94.9893 71.2267 95.0587 71.4454 95.1973 71.5841C95.3467 71.7121 95.592 71.7761 95.9333 71.7761H96.9733V73.6641H95.5653C93.6773 73.6641 92.7333 72.7467 92.7333 70.9121V66.6401H91.6773V64.8001H92.7333V62.6081H94.9893V64.8001H96.9733V66.6401H94.9893ZM106.824 69.0401C106.824 69.3601 106.803 69.6481 106.76 69.9041H100.28C100.334 70.5441 100.558 71.0454 100.952 71.4081C101.347 71.7707 101.832 71.9521 102.408 71.9521C103.24 71.9521 103.832 71.5947 104.184 70.8801H106.6C106.344 71.7334 105.854 72.4374 105.128 72.9921C104.403 73.5361 103.512 73.8081 102.456 73.8081C101.603 73.8081 100.835 73.6214 100.152 73.2481C99.4805 72.8641 98.9525 72.3254 98.5685 71.6321C98.1951 70.9387 98.0085 70.1387 98.0085 69.2321C98.0085 68.3147 98.1951 67.5094 98.5685 66.8161C98.9418 66.1227 99.4645 65.5894 100.136 65.2161C100.808 64.8427 101.582 64.6561 102.456 64.6561C103.299 64.6561 104.051 64.8374 104.712 65.2001C105.384 65.5627 105.902 66.0801 106.264 66.7521C106.638 67.4134 106.824 68.1761 106.824 69.0401ZM104.504 68.4001C104.494 67.8241 104.286 67.3654 103.88 67.0241C103.475 66.6721 102.979 66.4961 102.392 66.4961C101.838 66.4961 101.368 66.6667 100.984 67.0081C100.611 67.3387 100.382 67.8027 100.296 68.4001H104.504ZM107.883 69.2001C107.883 68.3041 108.059 67.5094 108.411 66.8161C108.774 66.1227 109.265 65.5894 109.883 65.2161C110.502 64.8427 111.19 64.6561 111.947 64.6561C112.523 64.6561 113.073 64.7841 113.595 65.0401C114.118 65.2854 114.534 65.6161 114.843 66.0321V61.8241H117.115V73.6641H114.843V72.3521C114.566 72.7894 114.177 73.1414 113.675 73.4081C113.174 73.6747 112.593 73.8081 111.931 73.8081C111.185 73.8081 110.502 73.6161 109.883 73.2321C109.265 72.8481 108.774 72.3094 108.411 71.6161C108.059 70.9121 107.883 70.1067 107.883 69.2001ZM114.859 69.2321C114.859 68.6881 114.753 68.2241 114.539 67.8401C114.326 67.4454 114.038 67.1467 113.675 66.9441C113.313 66.7307 112.923 66.6241 112.507 66.6241C112.091 66.6241 111.707 66.7254 111.355 66.9281C111.003 67.1307 110.715 67.4294 110.491 67.8241C110.278 68.2081 110.171 68.6667 110.171 69.2001C110.171 69.7334 110.278 70.2027 110.491 70.6081C110.715 71.0027 111.003 71.3067 111.355 71.5201C111.718 71.7334 112.102 71.8401 112.507 71.8401C112.923 71.8401 113.313 71.7387 113.675 71.5361C114.038 71.3227 114.326 71.0241 114.539 70.6401C114.753 70.2454 114.859 69.7761 114.859 69.2321Z" fill="#030303"/>
</g>
<defs>
<clipPath id="clip0_117_2036">
<rect width="201" height="84" fill="white" transform="translate(-16.5 0.308594)"/>
</clipPath>
</defs>
</svg>
