<svg width="168" height="131" viewBox="0 0 168 131" fill="none" xmlns="http://www.w3.org/2000/svg">
<rect width="201.461" height="129.944" transform="translate(-16.7305 0.818115)" fill="#E1D33E"/>
<path d="M52.6592 23.6125C51.8806 23.6125 51.1766 23.4792 50.5472 23.2125C49.9286 22.9458 49.4379 22.5618 49.0752 22.0605C48.7126 21.5592 48.5259 20.9672 48.5152 20.2845H50.9152C50.9472 20.7432 51.1072 21.1058 51.3952 21.3725C51.6939 21.6392 52.0992 21.7725 52.6112 21.7725C53.1339 21.7725 53.5446 21.6498 53.8432 21.4045C54.1419 21.1485 54.2912 20.8178 54.2912 20.4125C54.2912 20.0818 54.1899 19.8098 53.9872 19.5965C53.7846 19.3832 53.5286 19.2178 53.2192 19.1005C52.9206 18.9725 52.5046 18.8338 51.9712 18.6845C51.2459 18.4712 50.6539 18.2632 50.1952 18.0605C49.7472 17.8472 49.3579 17.5325 49.0272 17.1165C48.7072 16.6898 48.5472 16.1245 48.5472 15.4205C48.5472 14.7592 48.7126 14.1832 49.0432 13.6925C49.3739 13.2018 49.8379 12.8285 50.4352 12.5725C51.0326 12.3058 51.7152 12.1725 52.4832 12.1725C53.6352 12.1725 54.5686 12.4552 55.2832 13.0205C56.0086 13.5752 56.4086 14.3538 56.4832 15.3565H54.0192C53.9979 14.9725 53.8326 14.6578 53.5232 14.4125C53.2246 14.1565 52.8246 14.0285 52.3232 14.0285C51.8859 14.0285 51.5339 14.1405 51.2672 14.3645C51.0112 14.5885 50.8832 14.9138 50.8832 15.3405C50.8832 15.6392 50.9792 15.8898 51.1712 16.0925C51.3739 16.2845 51.6192 16.4445 51.9072 16.5725C52.2059 16.6898 52.6219 16.8285 53.1552 16.9885C53.8806 17.2018 54.4726 17.4152 54.9312 17.6285C55.3899 17.8418 55.7846 18.1618 56.1152 18.5885C56.4459 19.0152 56.6112 19.5752 56.6112 20.2685C56.6112 20.8658 56.4566 21.4205 56.1472 21.9325C55.8379 22.4445 55.3846 22.8552 54.7872 23.1645C54.1899 23.4632 53.4806 23.6125 52.6592 23.6125ZM66.7932 18.8765C66.7932 19.1965 66.7719 19.4845 66.7292 19.7405H60.2492C60.3026 20.3805 60.5266 20.8818 60.9212 21.2445C61.3159 21.6072 61.8012 21.7885 62.3772 21.7885C63.2092 21.7885 63.8012 21.4312 64.1532 20.7165H66.5692C66.3132 21.5698 65.8226 22.2738 65.0972 22.8285C64.3719 23.3725 63.4812 23.6445 62.4252 23.6445C61.5719 23.6445 60.8039 23.4578 60.1212 23.0845C59.4492 22.7005 58.9212 22.1618 58.5372 21.4685C58.1639 20.7752 57.9772 19.9752 57.9772 19.0685C57.9772 18.1512 58.1639 17.3458 58.5372 16.6525C58.9106 15.9592 59.4332 15.4258 60.1052 15.0525C60.7772 14.6792 61.5506 14.4925 62.4252 14.4925C63.2679 14.4925 64.0199 14.6738 64.6812 15.0365C65.3532 15.3992 65.8706 15.9165 66.2332 16.5885C66.6066 17.2498 66.7932 18.0125 66.7932 18.8765ZM64.4732 18.2365C64.4626 17.6605 64.2546 17.2018 63.8492 16.8605C63.4439 16.5085 62.9479 16.3325 62.3612 16.3325C61.8066 16.3325 61.3372 16.5032 60.9532 16.8445C60.5799 17.1752 60.3506 17.6392 60.2652 18.2365H64.4732ZM70.6682 11.6605V23.5005H68.4282V11.6605H70.6682ZM81.1213 18.8765C81.1213 19.1965 81.1 19.4845 81.0573 19.7405H74.5773C74.6307 20.3805 74.8547 20.8818 75.2493 21.2445C75.644 21.6072 76.1293 21.7885 76.7053 21.7885C77.5373 21.7885 78.1293 21.4312 78.4813 20.7165H80.8973C80.6413 21.5698 80.1507 22.2738 79.4253 22.8285C78.7 23.3725 77.8093 23.6445 76.7533 23.6445C75.9 23.6445 75.132 23.4578 74.4493 23.0845C73.7773 22.7005 73.2493 22.1618 72.8653 21.4685C72.492 20.7752 72.3053 19.9752 72.3053 19.0685C72.3053 18.1512 72.492 17.3458 72.8653 16.6525C73.2387 15.9592 73.7613 15.4258 74.4333 15.0525C75.1053 14.6792 75.8787 14.4925 76.7533 14.4925C77.596 14.4925 78.348 14.6738 79.0093 15.0365C79.6813 15.3992 80.1987 15.9165 80.5613 16.5885C80.9347 17.2498 81.1213 18.0125 81.1213 18.8765ZM78.8013 18.2365C78.7907 17.6605 78.5827 17.2018 78.1773 16.8605C77.772 16.5085 77.276 16.3325 76.6893 16.3325C76.1347 16.3325 75.6653 16.5032 75.2813 16.8445C74.908 17.1752 74.6787 17.6392 74.5933 18.2365H78.8013ZM82.1803 19.0685C82.1803 18.1512 82.367 17.3512 82.7403 16.6685C83.1137 15.9752 83.631 15.4418 84.2923 15.0685C84.9537 14.6845 85.711 14.4925 86.5643 14.4925C87.663 14.4925 88.5697 14.7698 89.2843 15.3245C90.0097 15.8685 90.495 16.6365 90.7403 17.6285H88.3243C88.1963 17.2445 87.9777 16.9458 87.6683 16.7325C87.3697 16.5085 86.9963 16.3965 86.5483 16.3965C85.9083 16.3965 85.4017 16.6312 85.0283 17.1005C84.655 17.5592 84.4683 18.2152 84.4683 19.0685C84.4683 19.9112 84.655 20.5672 85.0283 21.0365C85.4017 21.4952 85.9083 21.7245 86.5483 21.7245C87.455 21.7245 88.047 21.3192 88.3243 20.5085H90.7403C90.495 21.4685 90.0097 22.2312 89.2843 22.7965C88.559 23.3618 87.6523 23.6445 86.5643 23.6445C85.711 23.6445 84.9537 23.4578 84.2923 23.0845C83.631 22.7005 83.1137 22.1672 82.7403 21.4845C82.367 20.7912 82.1803 19.9858 82.1803 19.0685ZM94.9893 16.4765V20.7645C94.9893 21.0632 95.0587 21.2818 95.1973 21.4205C95.3467 21.5485 95.592 21.6125 95.9333 21.6125H96.9733V23.5005H95.5653C93.6773 23.5005 92.7333 22.5832 92.7333 20.7485V16.4765H91.6773V14.6365H92.7333V12.4445H94.9893V14.6365H96.9733V16.4765H94.9893ZM106.824 18.8765C106.824 19.1965 106.803 19.4845 106.76 19.7405H100.28C100.334 20.3805 100.558 20.8818 100.952 21.2445C101.347 21.6072 101.832 21.7885 102.408 21.7885C103.24 21.7885 103.832 21.4312 104.184 20.7165H106.6C106.344 21.5698 105.854 22.2738 105.128 22.8285C104.403 23.3725 103.512 23.6445 102.456 23.6445C101.603 23.6445 100.835 23.4578 100.152 23.0845C99.4805 22.7005 98.9525 22.1618 98.5685 21.4685C98.1951 20.7752 98.0085 19.9752 98.0085 19.0685C98.0085 18.1512 98.1951 17.3458 98.5685 16.6525C98.9418 15.9592 99.4645 15.4258 100.136 15.0525C100.808 14.6792 101.582 14.4925 102.456 14.4925C103.299 14.4925 104.051 14.6738 104.712 15.0365C105.384 15.3992 105.902 15.9165 106.264 16.5885C106.638 17.2498 106.824 18.0125 106.824 18.8765ZM104.504 18.2365C104.494 17.6605 104.286 17.2018 103.88 16.8605C103.475 16.5085 102.979 16.3325 102.392 16.3325C101.838 16.3325 101.368 16.5032 100.984 16.8445C100.611 17.1752 100.382 17.6392 100.296 18.2365H104.504ZM107.883 19.0365C107.883 18.1405 108.059 17.3458 108.411 16.6525C108.774 15.9592 109.265 15.4258 109.883 15.0525C110.502 14.6792 111.19 14.4925 111.947 14.4925C112.523 14.4925 113.073 14.6205 113.595 14.8765C114.118 15.1218 114.534 15.4525 114.843 15.8685V11.6605H117.115V23.5005H114.843V22.1885C114.566 22.6258 114.177 22.9778 113.675 23.2445C113.174 23.5112 112.593 23.6445 111.931 23.6445C111.185 23.6445 110.502 23.4525 109.883 23.0685C109.265 22.6845 108.774 22.1458 108.411 21.4525C108.059 20.7485 107.883 19.9432 107.883 19.0365ZM114.859 19.0685C114.859 18.5245 114.753 18.0605 114.539 17.6765C114.326 17.2818 114.038 16.9832 113.675 16.7805C113.313 16.5672 112.923 16.4605 112.507 16.4605C112.091 16.4605 111.707 16.5618 111.355 16.7645C111.003 16.9672 110.715 17.2658 110.491 17.6605C110.278 18.0445 110.171 18.5032 110.171 19.0365C110.171 19.5698 110.278 20.0392 110.491 20.4445C110.715 20.8392 111.003 21.1432 111.355 21.3565C111.718 21.5698 112.102 21.6765 112.507 21.6765C112.923 21.6765 113.313 21.5752 113.675 21.3725C114.038 21.1592 114.326 20.8605 114.539 20.4765C114.753 20.0818 114.859 19.6125 114.859 19.0685Z" fill="#030303"/>
</svg>
