<svg xmlns="http://www.w3.org/2000/svg" width="17" height="17" viewBox="0 0 17 17" fill="none">
  <path fill-rule="evenodd" clip-rule="evenodd" d="M9.69138 3.10057C9.38816 1.85157 7.61185 1.85157 7.30863 3.10057C7.11275 3.90741 6.18837 4.29031 5.47934 3.85829C4.38175 3.18952 3.12571 4.44556 3.79448 5.54315C4.22649 6.25218 3.8436 7.17657 3.03676 7.37244C1.78775 7.67566 1.78776 9.45198 3.03676 9.7552C3.8436 9.95107 4.2265 10.8755 3.79448 11.5845C3.12571 12.6821 4.38175 13.9381 5.47934 13.2693C6.18837 12.8373 7.11275 13.2202 7.30863 14.0271C7.61185 15.2761 9.38816 15.2761 9.69138 14.0271C9.88726 13.2202 10.8116 12.8373 11.5207 13.2693C12.6183 13.9381 13.8743 12.6821 13.2055 11.5845C12.7735 10.8755 13.1564 9.95107 13.9633 9.7552C15.2123 9.45198 15.2123 7.67566 13.9633 7.37244C13.1564 7.17657 12.7735 6.25218 13.2055 5.54315C13.8743 4.44556 12.6183 3.18952 11.5207 3.85829C10.8116 4.29031 9.88726 3.90741 9.69138 3.10057ZM8.50001 10.9638C9.82549 10.9638 10.9 9.8893 10.9 8.56382C10.9 7.23833 9.82549 6.16382 8.50001 6.16382C7.17452 6.16382 6.10001 7.23833 6.10001 8.56382C6.10001 9.8893 7.17452 10.9638 8.50001 10.9638Z" fill="#A3A5B6"/>
</svg>
